# xmcd
#
# Track frame offsets: 
#        150
#        27145
#        55895
#        82764
#        96479
#        137201
#        166064
#        188874
#
# Disc length: 3026 seconds
#
# Revision: 0
# Processed by: cddbd v1.5.1PL2 Copyright (c) Steve Scherf et al.
# Submitted via: ExactAudioCopy v0.95b3
#
DISCID=5f0bd008
DTITLE=Van Morrison - Pacific High Studios Remastered Disk 1
DYEAR=1971
DGENRE=Classic Rock
TTITLE0=Into The Mystic
TTITLE1=I've Been Working
TTITLE2=Friday's Child
TTITLE3=Hound Dog
TTITLE4=Ballerina
TTITLE5=Tueplo Honey
TTITLE6=Wild Night
TTITLE7=Just Like A Woman
EXTD=
EXTT0=
EXTT1=
EXTT2=
EXTT3=
EXTT4=
EXTT5=
EXTT6=
EXTT7=
PLAYORDER=
